<mxfile host="app.diagrams.net" modified="2020-12-02T23:12:07.376Z" agent="5.0 (Windows NT 10.0; Win64; x64) AppleWebKit/537.36 (KHTML, like Gecko) Chrome/87.0.4280.66 Safari/537.36" etag="e_t0aDqfVV7KH0jA4Cc9" version="13.10.4" type="github">
  <diagram id="sl6RY_0ubPZve0owpfZB" name="Page-1">
    <mxGraphModel dx="1422" dy="794" grid="1" gridSize="10" guides="1" tooltips="1" connect="1" arrows="1" fold="1" page="1" pageScale="1" pageWidth="827" pageHeight="1169" math="0" shadow="0">
      <root>
        <mxCell id="0" />
        <mxCell id="1" parent="0" />
        <mxCell id="LA3idthI7YxttZNsIavN-1" value="Customer" style="shape=umlActor;verticalLabelPosition=bottom;verticalAlign=top;html=1;outlineConnect=0;" vertex="1" parent="1">
          <mxGeometry x="100" y="210" width="30" height="60" as="geometry" />
        </mxCell>
        <mxCell id="LA3idthI7YxttZNsIavN-5" value="Create Ticket" style="ellipse;whiteSpace=wrap;html=1;" vertex="1" parent="1">
          <mxGeometry x="240" y="110" width="120" height="80" as="geometry" />
        </mxCell>
        <mxCell id="LA3idthI7YxttZNsIavN-7" value="" style="endArrow=classic;html=1;exitX=1;exitY=0.3333333333333333;exitDx=0;exitDy=0;exitPerimeter=0;entryX=0;entryY=0.5;entryDx=0;entryDy=0;" edge="1" parent="1" source="LA3idthI7YxttZNsIavN-1" target="LA3idthI7YxttZNsIavN-5">
          <mxGeometry width="50" height="50" relative="1" as="geometry">
            <mxPoint x="170" y="126.66666666666663" as="sourcePoint" />
            <mxPoint x="240" y="110" as="targetPoint" />
            <Array as="points">
              <mxPoint x="160" y="230" />
              <mxPoint x="160" y="150" />
            </Array>
          </mxGeometry>
        </mxCell>
        <mxCell id="LA3idthI7YxttZNsIavN-9" value="Open Gate" style="ellipse;whiteSpace=wrap;html=1;" vertex="1" parent="1">
          <mxGeometry x="240" y="240" width="120" height="80" as="geometry" />
        </mxCell>
        <mxCell id="LA3idthI7YxttZNsIavN-10" value="" style="endArrow=classic;html=1;exitX=1;exitY=0.3333333333333333;exitDx=0;exitDy=0;exitPerimeter=0;entryX=0;entryY=0.5;entryDx=0;entryDy=0;" edge="1" parent="1" source="LA3idthI7YxttZNsIavN-1" target="LA3idthI7YxttZNsIavN-9">
          <mxGeometry width="50" height="50" relative="1" as="geometry">
            <mxPoint x="140" y="260" as="sourcePoint" />
            <mxPoint x="250" y="190" as="targetPoint" />
            <Array as="points">
              <mxPoint x="160" y="230" />
              <mxPoint x="160" y="280" />
            </Array>
          </mxGeometry>
        </mxCell>
        <mxCell id="LA3idthI7YxttZNsIavN-11" value="" style="endArrow=classic;html=1;exitX=1;exitY=0.5;exitDx=0;exitDy=0;entryX=0;entryY=0.5;entryDx=0;entryDy=0;" edge="1" parent="1" source="LA3idthI7YxttZNsIavN-5" target="LA3idthI7YxttZNsIavN-12">
          <mxGeometry width="50" height="50" relative="1" as="geometry">
            <mxPoint x="400" y="140" as="sourcePoint" />
            <mxPoint x="420" y="150" as="targetPoint" />
          </mxGeometry>
        </mxCell>
        <mxCell id="LA3idthI7YxttZNsIavN-12" value="Insert details" style="ellipse;whiteSpace=wrap;html=1;" vertex="1" parent="1">
          <mxGeometry x="400" y="110" width="120" height="80" as="geometry" />
        </mxCell>
        <mxCell id="LA3idthI7YxttZNsIavN-13" value="" style="endArrow=classic;html=1;exitX=1;exitY=0.5;exitDx=0;exitDy=0;" edge="1" parent="1">
          <mxGeometry width="50" height="50" relative="1" as="geometry">
            <mxPoint x="520" y="149.5" as="sourcePoint" />
            <mxPoint x="570" y="150" as="targetPoint" />
          </mxGeometry>
        </mxCell>
        <mxCell id="LA3idthI7YxttZNsIavN-16" value="" style="endArrow=classic;html=1;exitX=1;exitY=0.5;exitDx=0;exitDy=0;entryX=0;entryY=0.5;entryDx=0;entryDy=0;" edge="1" parent="1">
          <mxGeometry width="50" height="50" relative="1" as="geometry">
            <mxPoint x="360" y="279.5" as="sourcePoint" />
            <mxPoint x="400" y="279.5" as="targetPoint" />
          </mxGeometry>
        </mxCell>
        <mxCell id="LA3idthI7YxttZNsIavN-17" value="Insert Details" style="ellipse;whiteSpace=wrap;html=1;" vertex="1" parent="1">
          <mxGeometry x="400" y="240" width="120" height="80" as="geometry" />
        </mxCell>
        <mxCell id="LA3idthI7YxttZNsIavN-19" value="" style="endArrow=classic;html=1;exitX=1;exitY=0.5;exitDx=0;exitDy=0;" edge="1" parent="1" source="LA3idthI7YxttZNsIavN-17">
          <mxGeometry width="50" height="50" relative="1" as="geometry">
            <mxPoint x="540" y="280" as="sourcePoint" />
            <mxPoint x="570" y="280" as="targetPoint" />
          </mxGeometry>
        </mxCell>
        <mxCell id="LA3idthI7YxttZNsIavN-37" value="Generate Ticket" style="ellipse;whiteSpace=wrap;html=1;" vertex="1" parent="1">
          <mxGeometry x="570" y="110" width="120" height="80" as="geometry" />
        </mxCell>
        <mxCell id="LA3idthI7YxttZNsIavN-40" value="" style="endArrow=classic;html=1;exitX=1;exitY=0.5;exitDx=0;exitDy=0;" edge="1" parent="1" source="LA3idthI7YxttZNsIavN-37">
          <mxGeometry width="50" height="50" relative="1" as="geometry">
            <mxPoint x="640" y="450" as="sourcePoint" />
            <mxPoint x="750" y="150" as="targetPoint" />
          </mxGeometry>
        </mxCell>
        <mxCell id="LA3idthI7YxttZNsIavN-41" value="Display Ticket" style="ellipse;whiteSpace=wrap;html=1;" vertex="1" parent="1">
          <mxGeometry x="750" y="110" width="120" height="80" as="geometry" />
        </mxCell>
        <mxCell id="LA3idthI7YxttZNsIavN-43" value="Check the ticket" style="ellipse;whiteSpace=wrap;html=1;" vertex="1" parent="1">
          <mxGeometry x="570" y="240" width="120" height="80" as="geometry" />
        </mxCell>
        <mxCell id="LA3idthI7YxttZNsIavN-47" value="Developer Build System&lt;br&gt;" style="shape=umlActor;verticalLabelPosition=bottom;verticalAlign=top;html=1;outlineConnect=0;" vertex="1" parent="1">
          <mxGeometry x="100" y="520" width="30" height="60" as="geometry" />
        </mxCell>
        <mxCell id="LA3idthI7YxttZNsIavN-50" value="ReST user" style="shape=umlActor;verticalLabelPosition=bottom;verticalAlign=top;html=1;outlineConnect=0;" vertex="1" parent="1">
          <mxGeometry x="100" y="820" width="30" height="60" as="geometry" />
        </mxCell>
        <mxCell id="LA3idthI7YxttZNsIavN-53" value="" style="endArrow=classic;html=1;exitX=1;exitY=0.3333333333333333;exitDx=0;exitDy=0;exitPerimeter=0;" edge="1" parent="1" source="LA3idthI7YxttZNsIavN-47" target="LA3idthI7YxttZNsIavN-54">
          <mxGeometry width="50" height="50" relative="1" as="geometry">
            <mxPoint x="320" y="690" as="sourcePoint" />
            <mxPoint x="220" y="540" as="targetPoint" />
          </mxGeometry>
        </mxCell>
        <mxCell id="LA3idthI7YxttZNsIavN-54" value="generate public and private keys" style="ellipse;whiteSpace=wrap;html=1;" vertex="1" parent="1">
          <mxGeometry x="240" y="500" width="120" height="80" as="geometry" />
        </mxCell>
        <mxCell id="LA3idthI7YxttZNsIavN-55" value="" style="endArrow=classic;html=1;exitX=1;exitY=0.3333333333333333;exitDx=0;exitDy=0;exitPerimeter=0;" edge="1" parent="1" source="LA3idthI7YxttZNsIavN-50">
          <mxGeometry width="50" height="50" relative="1" as="geometry">
            <mxPoint x="190" y="850" as="sourcePoint" />
            <mxPoint x="260" y="920" as="targetPoint" />
            <Array as="points">
              <mxPoint x="160" y="840" />
              <mxPoint x="160" y="920" />
            </Array>
          </mxGeometry>
        </mxCell>
        <mxCell id="LA3idthI7YxttZNsIavN-56" value="" style="endArrow=classic;html=1;exitX=1;exitY=0.3333333333333333;exitDx=0;exitDy=0;exitPerimeter=0;" edge="1" parent="1" source="LA3idthI7YxttZNsIavN-50">
          <mxGeometry width="50" height="50" relative="1" as="geometry">
            <mxPoint x="310" y="920" as="sourcePoint" />
            <mxPoint x="260" y="760" as="targetPoint" />
            <Array as="points">
              <mxPoint x="160" y="840" />
              <mxPoint x="160" y="760" />
            </Array>
          </mxGeometry>
        </mxCell>
        <mxCell id="LA3idthI7YxttZNsIavN-57" value="Ticket createTicket(zones, validFrom, validTo, startingStation)" style="ellipse;whiteSpace=wrap;html=1;" vertex="1" parent="1">
          <mxGeometry x="260" y="720" width="120" height="80" as="geometry" />
        </mxCell>
        <mxCell id="LA3idthI7YxttZNsIavN-58" value="openGate(Ticket ticket, time, zoneTravelled" style="ellipse;whiteSpace=wrap;html=1;" vertex="1" parent="1">
          <mxGeometry x="260" y="880" width="120" height="80" as="geometry" />
        </mxCell>
        <mxCell id="LA3idthI7YxttZNsIavN-60" value="" style="endArrow=classic;html=1;exitX=1;exitY=0.5;exitDx=0;exitDy=0;" edge="1" parent="1">
          <mxGeometry width="50" height="50" relative="1" as="geometry">
            <mxPoint x="380" y="919.5" as="sourcePoint" />
            <mxPoint x="460" y="919.5" as="targetPoint" />
          </mxGeometry>
        </mxCell>
        <mxCell id="LA3idthI7YxttZNsIavN-61" value="Check zones, validFrom, validTo, startStation" style="ellipse;whiteSpace=wrap;html=1;" vertex="1" parent="1">
          <mxGeometry x="520" y="610" width="120" height="80" as="geometry" />
        </mxCell>
        <mxCell id="LA3idthI7YxttZNsIavN-62" value="Parse validFrom and validTo" style="ellipse;whiteSpace=wrap;html=1;" vertex="1" parent="1">
          <mxGeometry x="640" y="610" width="120" height="80" as="geometry" />
        </mxCell>
        <mxCell id="LA3idthI7YxttZNsIavN-64" value="set replyMessage" style="ellipse;whiteSpace=wrap;html=1;" vertex="1" parent="1">
          <mxGeometry x="760" y="610" width="120" height="80" as="geometry" />
        </mxCell>
        <mxCell id="LA3idthI7YxttZNsIavN-67" value="return response" style="ellipse;whiteSpace=wrap;html=1;" vertex="1" parent="1">
          <mxGeometry x="880" y="610" width="120" height="80" as="geometry" />
        </mxCell>
        <mxCell id="LA3idthI7YxttZNsIavN-70" value="" style="endArrow=classic;html=1;exitX=1;exitY=0.5;exitDx=0;exitDy=0;" edge="1" parent="1">
          <mxGeometry width="50" height="50" relative="1" as="geometry">
            <mxPoint x="380" y="759.5" as="sourcePoint" />
            <mxPoint x="460" y="759.5" as="targetPoint" />
          </mxGeometry>
        </mxCell>
      </root>
    </mxGraphModel>
  </diagram>
</mxfile>
